<mxfile host="app.diagrams.net" agent="Mozilla/5.0 (Windows NT 10.0; Win64; x64) AppleWebKit/537.36 (KHTML, like Gecko) Chrome/137.0.0.0 Safari/537.36" version="27.1.6">
  <diagram name="Page-1" id="Icl1W_Nr-a6_E6u8P6ZL">
    <mxGraphModel dx="2043" dy="1160" grid="1" gridSize="10" guides="1" tooltips="1" connect="1" arrows="1" fold="1" page="1" pageScale="1" pageWidth="850" pageHeight="1100" math="0" shadow="0">
      <root>
        <mxCell id="0" />
        <mxCell id="1" parent="0" />
        <mxCell id="D_S-s3Nb1uPOKD5JZRhK-2" value="AWS Cloud" style="points=[[0,0],[0.25,0],[0.5,0],[0.75,0],[1,0],[1,0.25],[1,0.5],[1,0.75],[1,1],[0.75,1],[0.5,1],[0.25,1],[0,1],[0,0.75],[0,0.5],[0,0.25]];outlineConnect=0;gradientColor=none;html=1;whiteSpace=wrap;fontSize=12;fontStyle=0;container=1;pointerEvents=0;collapsible=0;recursiveResize=0;shape=mxgraph.aws4.group;grIcon=mxgraph.aws4.group_aws_cloud_alt;strokeColor=#232F3E;fillColor=none;verticalAlign=top;align=left;spacingLeft=30;fontColor=#232F3E;dashed=0;" parent="1" vertex="1">
          <mxGeometry x="240" y="110" width="1370" height="810" as="geometry" />
        </mxCell>
        <mxCell id="D_S-s3Nb1uPOKD5JZRhK-10" value="&lt;span style=&quot;color: rgb(0, 0, 0); text-wrap-mode: wrap;&quot;&gt;&lt;b&gt;Amazon API Gateway&lt;/b&gt;&lt;/span&gt;" style="sketch=0;points=[[0,0,0],[0.25,0,0],[0.5,0,0],[0.75,0,0],[1,0,0],[0,1,0],[0.25,1,0],[0.5,1,0],[0.75,1,0],[1,1,0],[0,0.25,0],[0,0.5,0],[0,0.75,0],[1,0.25,0],[1,0.5,0],[1,0.75,0]];outlineConnect=0;fontColor=#232F3E;fillColor=#E7157B;strokeColor=#ffffff;dashed=0;verticalLabelPosition=bottom;verticalAlign=top;align=center;html=1;fontSize=12;fontStyle=0;aspect=fixed;shape=mxgraph.aws4.resourceIcon;resIcon=mxgraph.aws4.api_gateway;" parent="D_S-s3Nb1uPOKD5JZRhK-2" vertex="1">
          <mxGeometry x="310" y="302.51" width="78" height="78" as="geometry" />
        </mxCell>
        <mxCell id="D_S-s3Nb1uPOKD5JZRhK-11" value="&lt;span style=&quot;color: rgb(0, 0, 0); text-wrap-mode: wrap;&quot;&gt;&lt;b&gt;Simple Notification Service&lt;/b&gt;&lt;/span&gt;" style="sketch=0;points=[[0,0,0],[0.25,0,0],[0.5,0,0],[0.75,0,0],[1,0,0],[0,1,0],[0.25,1,0],[0.5,1,0],[0.75,1,0],[1,1,0],[0,0.25,0],[0,0.5,0],[0,0.75,0],[1,0.25,0],[1,0.5,0],[1,0.75,0]];outlineConnect=0;fontColor=#232F3E;fillColor=#E7157B;strokeColor=#ffffff;dashed=0;verticalLabelPosition=bottom;verticalAlign=top;align=center;html=1;fontSize=12;fontStyle=0;aspect=fixed;shape=mxgraph.aws4.resourceIcon;resIcon=mxgraph.aws4.sns;" parent="D_S-s3Nb1uPOKD5JZRhK-2" vertex="1">
          <mxGeometry x="1035" y="147" width="78" height="78" as="geometry" />
        </mxCell>
        <mxCell id="D_S-s3Nb1uPOKD5JZRhK-18" value="&lt;span style=&quot;color: rgb(0, 0, 0); text-wrap-mode: wrap;&quot;&gt;&lt;b&gt;DynamoDB&lt;/b&gt;&lt;/span&gt;" style="sketch=0;points=[[0,0,0],[0.25,0,0],[0.5,0,0],[0.75,0,0],[1,0,0],[0,1,0],[0.25,1,0],[0.5,1,0],[0.75,1,0],[1,1,0],[0,0.25,0],[0,0.5,0],[0,0.75,0],[1,0.25,0],[1,0.5,0],[1,0.75,0]];outlineConnect=0;fontColor=#232F3E;fillColor=#C925D1;strokeColor=#ffffff;dashed=0;verticalLabelPosition=bottom;verticalAlign=top;align=center;html=1;fontSize=12;fontStyle=0;aspect=fixed;shape=mxgraph.aws4.resourceIcon;resIcon=mxgraph.aws4.dynamodb;" parent="D_S-s3Nb1uPOKD5JZRhK-2" vertex="1">
          <mxGeometry x="1100" y="366" width="78" height="78" as="geometry" />
        </mxCell>
        <mxCell id="D_S-s3Nb1uPOKD5JZRhK-30" value="&lt;b&gt;Products&lt;/b&gt;" style="sketch=0;points=[[0,0,0],[0.25,0,0],[0.5,0,0],[0.75,0,0],[1,0,0],[0,1,0],[0.25,1,0],[0.5,1,0],[0.75,1,0],[1,1,0],[0,0.25,0],[0,0.5,0],[0,0.75,0],[1,0.25,0],[1,0.5,0],[1,0.75,0]];outlineConnect=0;fontColor=#232F3E;fillColor=#ED7100;strokeColor=#ffffff;dashed=0;verticalLabelPosition=bottom;verticalAlign=top;align=center;html=1;fontSize=12;fontStyle=0;aspect=fixed;shape=mxgraph.aws4.resourceIcon;resIcon=mxgraph.aws4.lambda;" parent="D_S-s3Nb1uPOKD5JZRhK-2" vertex="1">
          <mxGeometry x="630" y="15" width="78" height="78" as="geometry" />
        </mxCell>
        <mxCell id="D_S-s3Nb1uPOKD5JZRhK-20" value="&lt;b&gt;S3&lt;/b&gt;" style="sketch=0;points=[[0,0,0],[0.25,0,0],[0.5,0,0],[0.75,0,0],[1,0,0],[0,1,0],[0.25,1,0],[0.5,1,0],[0.75,1,0],[1,1,0],[0,0.25,0],[0,0.5,0],[0,0.75,0],[1,0.25,0],[1,0.5,0],[1,0.75,0]];outlineConnect=0;fontColor=#232F3E;fillColor=#7AA116;strokeColor=#ffffff;dashed=0;verticalLabelPosition=bottom;verticalAlign=top;align=center;html=1;fontSize=12;fontStyle=0;aspect=fixed;shape=mxgraph.aws4.resourceIcon;resIcon=mxgraph.aws4.s3;" parent="D_S-s3Nb1uPOKD5JZRhK-2" vertex="1">
          <mxGeometry x="117" y="302.52" width="78" height="78" as="geometry" />
        </mxCell>
        <mxCell id="_1s6jJ3s3lcJXKKOm0l4-5" style="edgeStyle=orthogonalEdgeStyle;rounded=0;orthogonalLoop=1;jettySize=auto;html=1;" edge="1" parent="D_S-s3Nb1uPOKD5JZRhK-2" source="D_S-s3Nb1uPOKD5JZRhK-3" target="D_S-s3Nb1uPOKD5JZRhK-24">
          <mxGeometry relative="1" as="geometry">
            <Array as="points">
              <mxPoint x="-195" y="110" />
            </Array>
          </mxGeometry>
        </mxCell>
        <mxCell id="D_S-s3Nb1uPOKD5JZRhK-3" value="users" style="sketch=0;outlineConnect=0;gradientColor=none;fontColor=#545B64;strokeColor=none;fillColor=#879196;dashed=0;verticalLabelPosition=bottom;verticalAlign=top;align=center;html=1;fontSize=12;fontStyle=0;aspect=fixed;shape=mxgraph.aws4.illustration_users;pointerEvents=1" parent="D_S-s3Nb1uPOKD5JZRhK-2" vertex="1">
          <mxGeometry x="-220" y="311" width="50" height="50" as="geometry" />
        </mxCell>
        <mxCell id="D_S-s3Nb1uPOKD5JZRhK-4" value="" style="sketch=0;outlineConnect=0;fontColor=#232F3E;gradientColor=none;fillColor=#232F3D;strokeColor=none;dashed=0;verticalLabelPosition=bottom;verticalAlign=top;align=center;html=1;fontSize=12;fontStyle=0;aspect=fixed;pointerEvents=1;shape=mxgraph.aws4.client;" parent="D_S-s3Nb1uPOKD5JZRhK-2" vertex="1">
          <mxGeometry x="-80" y="322.03" width="40" height="38.97" as="geometry" />
        </mxCell>
        <mxCell id="D_S-s3Nb1uPOKD5JZRhK-5" value="" style="edgeStyle=orthogonalEdgeStyle;html=1;endArrow=block;elbow=vertical;startArrow=none;endFill=1;strokeColor=#545B64;rounded=0;" parent="D_S-s3Nb1uPOKD5JZRhK-2" target="D_S-s3Nb1uPOKD5JZRhK-4" edge="1">
          <mxGeometry width="100" relative="1" as="geometry">
            <mxPoint x="-170" y="341.26" as="sourcePoint" />
            <mxPoint x="-100" y="341.26" as="targetPoint" />
            <Array as="points">
              <mxPoint x="-120" y="342" />
              <mxPoint x="-120" y="342" />
            </Array>
          </mxGeometry>
        </mxCell>
        <mxCell id="D_S-s3Nb1uPOKD5JZRhK-28" value="" style="edgeStyle=orthogonalEdgeStyle;html=1;endArrow=block;elbow=vertical;startArrow=block;startFill=1;endFill=1;strokeColor=#545B64;rounded=0;entryX=0;entryY=0.5;entryDx=0;entryDy=0;entryPerimeter=0;" parent="D_S-s3Nb1uPOKD5JZRhK-2" source="D_S-s3Nb1uPOKD5JZRhK-4" target="D_S-s3Nb1uPOKD5JZRhK-20" edge="1">
          <mxGeometry width="100" relative="1" as="geometry">
            <mxPoint x="10" y="441" as="sourcePoint" />
            <mxPoint x="110" y="441" as="targetPoint" />
            <Array as="points">
              <mxPoint x="25" y="342" />
              <mxPoint x="140" y="341" />
            </Array>
          </mxGeometry>
        </mxCell>
        <mxCell id="D_S-s3Nb1uPOKD5JZRhK-49" value="&lt;span style=&quot;font-size: 12px; text-wrap-mode: wrap; background-color: rgb(236, 236, 236);&quot;&gt;Page&lt;/span&gt;&lt;br style=&quot;font-size: 12px; text-wrap-mode: wrap; background-color: rgb(236, 236, 236);&quot;&gt;&lt;span style=&quot;font-size: 12px; text-wrap-mode: wrap; background-color: rgb(236, 236, 236);&quot;&gt;Request&lt;/span&gt;" style="edgeLabel;html=1;align=center;verticalAlign=middle;resizable=0;points=[];" parent="D_S-s3Nb1uPOKD5JZRhK-28" vertex="1" connectable="0">
          <mxGeometry x="0.3001" y="1" relative="1" as="geometry">
            <mxPoint as="offset" />
          </mxGeometry>
        </mxCell>
        <mxCell id="_1s6jJ3s3lcJXKKOm0l4-10" style="edgeStyle=orthogonalEdgeStyle;rounded=0;orthogonalLoop=1;jettySize=auto;html=1;" edge="1" parent="D_S-s3Nb1uPOKD5JZRhK-2" source="D_S-s3Nb1uPOKD5JZRhK-24" target="D_S-s3Nb1uPOKD5JZRhK-3">
          <mxGeometry relative="1" as="geometry">
            <Array as="points">
              <mxPoint x="160" y="290" />
              <mxPoint x="-150" y="290" />
              <mxPoint x="-150" y="336" />
            </Array>
          </mxGeometry>
        </mxCell>
        <mxCell id="D_S-s3Nb1uPOKD5JZRhK-24" value="&lt;br&gt;&lt;div&gt;&lt;div&gt;&lt;/div&gt;&lt;/div&gt;" style="sketch=0;points=[[0,0,0],[0.25,0,0],[0.5,0,0],[0.75,0,0],[1,0,0],[0,1,0],[0.25,1,0],[0.5,1,0],[0.75,1,0],[1,1,0],[0,0.25,0],[0,0.5,0],[0,0.75,0],[1,0.25,0],[1,0.5,0],[1,0.75,0]];outlineConnect=0;fontColor=#232F3E;fillColor=#DD344C;strokeColor=#ffffff;dashed=0;verticalLabelPosition=bottom;verticalAlign=top;align=center;html=1;fontSize=12;fontStyle=0;aspect=fixed;shape=mxgraph.aws4.resourceIcon;resIcon=mxgraph.aws4.cognito;" parent="D_S-s3Nb1uPOKD5JZRhK-2" vertex="1">
          <mxGeometry x="117" y="91" width="78" height="78" as="geometry" />
        </mxCell>
        <mxCell id="D_S-s3Nb1uPOKD5JZRhK-68" value="&lt;b&gt;Amazon Cognito user pool&lt;/b&gt;" style="text;html=1;align=center;verticalAlign=middle;whiteSpace=wrap;rounded=0;" parent="D_S-s3Nb1uPOKD5JZRhK-2" vertex="1">
          <mxGeometry x="106" y="171" width="100" height="30" as="geometry" />
        </mxCell>
        <mxCell id="D_S-s3Nb1uPOKD5JZRhK-74" value="&lt;font style=&quot;font-size: 9px;&quot;&gt;&lt;b&gt; login/signup&lt;/b&gt;&lt;/font&gt;" style="text;html=1;align=center;verticalAlign=middle;whiteSpace=wrap;rounded=0;rotation=-90;" parent="D_S-s3Nb1uPOKD5JZRhK-2" vertex="1">
          <mxGeometry x="105.5" y="239.5" width="53" height="28" as="geometry" />
        </mxCell>
        <mxCell id="D_S-s3Nb1uPOKD5JZRhK-81" value="" style="edgeStyle=orthogonalEdgeStyle;html=1;endArrow=block;elbow=vertical;startArrow=none;endFill=1;strokeColor=#545B64;rounded=0;" parent="D_S-s3Nb1uPOKD5JZRhK-2" edge="1" target="_1s6jJ3s3lcJXKKOm0l4-12">
          <mxGeometry width="100" relative="1" as="geometry">
            <mxPoint x="206" y="129.5" as="sourcePoint" />
            <mxPoint x="281" y="129.95" as="targetPoint" />
            <Array as="points">
              <mxPoint x="330" y="130" />
              <mxPoint x="330" y="130" />
            </Array>
          </mxGeometry>
        </mxCell>
        <mxCell id="D_S-s3Nb1uPOKD5JZRhK-79" value="" style="edgeStyle=orthogonalEdgeStyle;html=1;endArrow=block;elbow=vertical;startArrow=none;endFill=1;strokeColor=#545B64;rounded=0;" parent="D_S-s3Nb1uPOKD5JZRhK-2" edge="1">
          <mxGeometry width="100" relative="1" as="geometry">
            <mxPoint x="206" y="344.41" as="sourcePoint" />
            <mxPoint x="306" y="344.41" as="targetPoint" />
          </mxGeometry>
        </mxCell>
        <mxCell id="D_S-s3Nb1uPOKD5JZRhK-109" value="&lt;b&gt;Cart&lt;/b&gt;" style="sketch=0;points=[[0,0,0],[0.25,0,0],[0.5,0,0],[0.75,0,0],[1,0,0],[0,1,0],[0.25,1,0],[0.5,1,0],[0.75,1,0],[1,1,0],[0,0.25,0],[0,0.5,0],[0,0.75,0],[1,0.25,0],[1,0.5,0],[1,0.75,0]];outlineConnect=0;fontColor=#232F3E;fillColor=#ED7100;strokeColor=#ffffff;dashed=0;verticalLabelPosition=bottom;verticalAlign=top;align=center;html=1;fontSize=12;fontStyle=0;aspect=fixed;shape=mxgraph.aws4.resourceIcon;resIcon=mxgraph.aws4.lambda;" parent="D_S-s3Nb1uPOKD5JZRhK-2" vertex="1">
          <mxGeometry x="590" y="311" width="78" height="78" as="geometry" />
        </mxCell>
        <mxCell id="D_S-s3Nb1uPOKD5JZRhK-119" value="&lt;b&gt;Admin Orders&lt;/b&gt;" style="sketch=0;points=[[0,0,0],[0.25,0,0],[0.5,0,0],[0.75,0,0],[1,0,0],[0,1,0],[0.25,1,0],[0.5,1,0],[0.75,1,0],[1,1,0],[0,0.25,0],[0,0.5,0],[0,0.75,0],[1,0.25,0],[1,0.5,0],[1,0.75,0]];outlineConnect=0;fontColor=#232F3E;fillColor=#ED7100;strokeColor=#ffffff;dashed=0;verticalLabelPosition=bottom;verticalAlign=top;align=center;html=1;fontSize=12;fontStyle=0;aspect=fixed;shape=mxgraph.aws4.resourceIcon;resIcon=mxgraph.aws4.lambda;" parent="D_S-s3Nb1uPOKD5JZRhK-2" vertex="1">
          <mxGeometry x="590" y="430" width="78" height="78" as="geometry" />
        </mxCell>
        <mxCell id="_1s6jJ3s3lcJXKKOm0l4-1" style="edgeStyle=orthogonalEdgeStyle;rounded=0;orthogonalLoop=1;jettySize=auto;html=1;" edge="1" parent="D_S-s3Nb1uPOKD5JZRhK-2" source="D_S-s3Nb1uPOKD5JZRhK-118" target="D_S-s3Nb1uPOKD5JZRhK-18">
          <mxGeometry relative="1" as="geometry" />
        </mxCell>
        <mxCell id="D_S-s3Nb1uPOKD5JZRhK-118" value="&lt;b&gt;Product By Id&lt;/b&gt;" style="sketch=0;points=[[0,0,0],[0.25,0,0],[0.5,0,0],[0.75,0,0],[1,0,0],[0,1,0],[0.25,1,0],[0.5,1,0],[0.75,1,0],[1,1,0],[0,0.25,0],[0,0.5,0],[0,0.75,0],[1,0.25,0],[1,0.5,0],[1,0.75,0]];outlineConnect=0;fontColor=#232F3E;fillColor=#ED7100;strokeColor=#ffffff;dashed=0;verticalLabelPosition=bottom;verticalAlign=top;align=center;html=1;fontSize=12;fontStyle=0;aspect=fixed;shape=mxgraph.aws4.resourceIcon;resIcon=mxgraph.aws4.lambda;" parent="D_S-s3Nb1uPOKD5JZRhK-2" vertex="1">
          <mxGeometry x="590" y="560" width="78" height="78" as="geometry" />
        </mxCell>
        <mxCell id="D_S-s3Nb1uPOKD5JZRhK-123" value="&lt;b&gt;CloudWatch&lt;/b&gt;" style="sketch=0;points=[[0,0,0],[0.25,0,0],[0.5,0,0],[0.75,0,0],[1,0,0],[0,1,0],[0.25,1,0],[0.5,1,0],[0.75,1,0],[1,1,0],[0,0.25,0],[0,0.5,0],[0,0.75,0],[1,0.25,0],[1,0.5,0],[1,0.75,0]];points=[[0,0,0],[0.25,0,0],[0.5,0,0],[0.75,0,0],[1,0,0],[0,1,0],[0.25,1,0],[0.5,1,0],[0.75,1,0],[1,1,0],[0,0.25,0],[0,0.5,0],[0,0.75,0],[1,0.25,0],[1,0.5,0],[1,0.75,0]];outlineConnect=0;fontColor=#232F3E;fillColor=#E7157B;strokeColor=#ffffff;dashed=0;verticalLabelPosition=bottom;verticalAlign=top;align=center;html=1;fontSize=12;fontStyle=0;aspect=fixed;shape=mxgraph.aws4.resourceIcon;resIcon=mxgraph.aws4.cloudwatch_2;" parent="D_S-s3Nb1uPOKD5JZRhK-2" vertex="1">
          <mxGeometry x="1190" y="640" width="78" height="78" as="geometry" />
        </mxCell>
        <mxCell id="D_S-s3Nb1uPOKD5JZRhK-124" value="" style="edgeStyle=orthogonalEdgeStyle;html=1;endArrow=block;elbow=vertical;startArrow=block;startFill=1;endFill=1;strokeColor=#545B64;rounded=0;exitX=1;exitY=0.5;exitDx=0;exitDy=0;exitPerimeter=0;" parent="D_S-s3Nb1uPOKD5JZRhK-2" source="D_S-s3Nb1uPOKD5JZRhK-119" target="D_S-s3Nb1uPOKD5JZRhK-18" edge="1">
          <mxGeometry width="100" relative="1" as="geometry">
            <mxPoint x="830" y="420" as="sourcePoint" />
            <mxPoint x="855.9999999999995" y="340.52" as="targetPoint" />
          </mxGeometry>
        </mxCell>
        <mxCell id="D_S-s3Nb1uPOKD5JZRhK-125" value="" style="edgeStyle=orthogonalEdgeStyle;html=1;endArrow=block;elbow=vertical;startArrow=none;endFill=1;strokeColor=#545B64;rounded=0;entryX=0;entryY=0.5;entryDx=0;entryDy=0;entryPerimeter=0;" parent="D_S-s3Nb1uPOKD5JZRhK-2" target="D_S-s3Nb1uPOKD5JZRhK-119" edge="1">
          <mxGeometry width="100" relative="1" as="geometry">
            <mxPoint x="400" y="350" as="sourcePoint" />
            <mxPoint x="600" y="360" as="targetPoint" />
            <Array as="points">
              <mxPoint x="490" y="350" />
              <mxPoint x="490" y="469" />
            </Array>
          </mxGeometry>
        </mxCell>
        <mxCell id="D_S-s3Nb1uPOKD5JZRhK-126" value="" style="edgeStyle=orthogonalEdgeStyle;html=1;endArrow=block;elbow=vertical;startArrow=none;endFill=1;strokeColor=#545B64;rounded=0;entryX=0;entryY=0.5;entryDx=0;entryDy=0;entryPerimeter=0;" parent="D_S-s3Nb1uPOKD5JZRhK-2" target="D_S-s3Nb1uPOKD5JZRhK-118" edge="1">
          <mxGeometry width="100" relative="1" as="geometry">
            <mxPoint x="410" y="350" as="sourcePoint" />
            <mxPoint x="600" y="479" as="targetPoint" />
            <Array as="points">
              <mxPoint x="490" y="350" />
              <mxPoint x="490" y="599" />
            </Array>
          </mxGeometry>
        </mxCell>
        <mxCell id="D_S-s3Nb1uPOKD5JZRhK-127" value="&lt;b&gt;GET, POST&lt;/b&gt;" style="text;html=1;align=center;verticalAlign=middle;whiteSpace=wrap;rounded=0;" parent="D_S-s3Nb1uPOKD5JZRhK-2" vertex="1">
          <mxGeometry x="500" y="444" width="90" height="20" as="geometry" />
        </mxCell>
        <mxCell id="D_S-s3Nb1uPOKD5JZRhK-130" value="&lt;b&gt;Admin Add Products&lt;/b&gt;" style="sketch=0;points=[[0,0,0],[0.25,0,0],[0.5,0,0],[0.75,0,0],[1,0,0],[0,1,0],[0.25,1,0],[0.5,1,0],[0.75,1,0],[1,1,0],[0,0.25,0],[0,0.5,0],[0,0.75,0],[1,0.25,0],[1,0.5,0],[1,0.75,0]];outlineConnect=0;fontColor=#232F3E;fillColor=#ED7100;strokeColor=#ffffff;dashed=0;verticalLabelPosition=bottom;verticalAlign=top;align=center;html=1;fontSize=12;fontStyle=0;aspect=fixed;shape=mxgraph.aws4.resourceIcon;resIcon=mxgraph.aws4.lambda;" parent="D_S-s3Nb1uPOKD5JZRhK-2" vertex="1">
          <mxGeometry x="590" y="670" width="78" height="78" as="geometry" />
        </mxCell>
        <mxCell id="D_S-s3Nb1uPOKD5JZRhK-136" value="" style="edgeStyle=orthogonalEdgeStyle;html=1;endArrow=block;elbow=vertical;startArrow=none;endFill=1;strokeColor=#545B64;rounded=0;entryX=0;entryY=0.5;entryDx=0;entryDy=0;entryPerimeter=0;" parent="D_S-s3Nb1uPOKD5JZRhK-2" edge="1">
          <mxGeometry width="100" relative="1" as="geometry">
            <mxPoint x="410" y="350" as="sourcePoint" />
            <mxPoint x="590" y="718" as="targetPoint" />
            <Array as="points">
              <mxPoint x="490" y="350" />
              <mxPoint x="490" y="718" />
            </Array>
          </mxGeometry>
        </mxCell>
        <mxCell id="D_S-s3Nb1uPOKD5JZRhK-137" value="&lt;b&gt;GET, DELETE&lt;/b&gt;" style="text;html=1;align=center;verticalAlign=middle;whiteSpace=wrap;rounded=0;" parent="D_S-s3Nb1uPOKD5JZRhK-2" vertex="1">
          <mxGeometry x="500" y="570" width="90" height="20" as="geometry" />
        </mxCell>
        <mxCell id="D_S-s3Nb1uPOKD5JZRhK-145" value="" style="edgeStyle=orthogonalEdgeStyle;html=1;endArrow=block;elbow=vertical;startArrow=block;startFill=1;endFill=1;strokeColor=#545B64;rounded=0;exitX=1;exitY=0.5;exitDx=0;exitDy=0;exitPerimeter=0;" parent="D_S-s3Nb1uPOKD5JZRhK-2" source="D_S-s3Nb1uPOKD5JZRhK-30" target="D_S-s3Nb1uPOKD5JZRhK-18" edge="1">
          <mxGeometry width="100" relative="1" as="geometry">
            <mxPoint x="667.5" y="129" as="sourcePoint" />
            <mxPoint x="817" y="321.01999999999975" as="targetPoint" />
            <Array as="points">
              <mxPoint x="800" y="54" />
              <mxPoint x="800" y="321" />
              <mxPoint x="1139" y="321" />
            </Array>
          </mxGeometry>
        </mxCell>
        <mxCell id="_1s6jJ3s3lcJXKKOm0l4-2" style="edgeStyle=orthogonalEdgeStyle;rounded=0;orthogonalLoop=1;jettySize=auto;html=1;entryX=0.5;entryY=1;entryDx=0;entryDy=0;entryPerimeter=0;" edge="1" parent="D_S-s3Nb1uPOKD5JZRhK-2" source="D_S-s3Nb1uPOKD5JZRhK-130" target="D_S-s3Nb1uPOKD5JZRhK-18">
          <mxGeometry relative="1" as="geometry" />
        </mxCell>
        <mxCell id="_1s6jJ3s3lcJXKKOm0l4-9" style="edgeStyle=orthogonalEdgeStyle;rounded=0;orthogonalLoop=1;jettySize=auto;html=1;entryX=0;entryY=0.75;entryDx=0;entryDy=0;entryPerimeter=0;" edge="1" parent="D_S-s3Nb1uPOKD5JZRhK-2" source="D_S-s3Nb1uPOKD5JZRhK-3" target="D_S-s3Nb1uPOKD5JZRhK-24">
          <mxGeometry relative="1" as="geometry">
            <Array as="points">
              <mxPoint x="-195" y="170" />
              <mxPoint x="-27" y="170" />
              <mxPoint x="-27" y="150" />
            </Array>
          </mxGeometry>
        </mxCell>
        <mxCell id="_1s6jJ3s3lcJXKKOm0l4-12" value="&lt;b&gt;TechBay-AutoAssignGroup&lt;/b&gt;" style="sketch=0;points=[[0,0,0],[0.25,0,0],[0.5,0,0],[0.75,0,0],[1,0,0],[0,1,0],[0.25,1,0],[0.5,1,0],[0.75,1,0],[1,1,0],[0,0.25,0],[0,0.5,0],[0,0.75,0],[1,0.25,0],[1,0.5,0],[1,0.75,0]];outlineConnect=0;fontColor=#232F3E;fillColor=#ED7100;strokeColor=#ffffff;dashed=0;verticalLabelPosition=bottom;verticalAlign=top;align=center;html=1;fontSize=12;fontStyle=0;aspect=fixed;shape=mxgraph.aws4.resourceIcon;resIcon=mxgraph.aws4.lambda;" vertex="1" parent="D_S-s3Nb1uPOKD5JZRhK-2">
          <mxGeometry x="370" y="101" width="78" height="78" as="geometry" />
        </mxCell>
        <mxCell id="_1s6jJ3s3lcJXKKOm0l4-17" value="&lt;font style=&quot;font-size: 9px;&quot;&gt;&lt;b&gt;Trigger Post-Confirmation Lambda&lt;/b&gt;&lt;/font&gt;" style="text;html=1;align=center;verticalAlign=middle;whiteSpace=wrap;rounded=0;rotation=0;" vertex="1" parent="D_S-s3Nb1uPOKD5JZRhK-2">
          <mxGeometry x="195" y="101" width="162" height="28" as="geometry" />
        </mxCell>
        <mxCell id="_1s6jJ3s3lcJXKKOm0l4-20" style="edgeStyle=orthogonalEdgeStyle;rounded=0;orthogonalLoop=1;jettySize=auto;html=1;" edge="1" parent="D_S-s3Nb1uPOKD5JZRhK-2" target="D_S-s3Nb1uPOKD5JZRhK-24">
          <mxGeometry relative="1" as="geometry">
            <mxPoint x="-185" y="321" as="sourcePoint" />
            <mxPoint x="127" y="120" as="targetPoint" />
            <Array as="points">
              <mxPoint x="-185" y="120" />
            </Array>
          </mxGeometry>
        </mxCell>
        <mxCell id="_1s6jJ3s3lcJXKKOm0l4-21" value="" style="edgeStyle=orthogonalEdgeStyle;html=1;endArrow=block;elbow=vertical;startArrow=block;startFill=1;endFill=1;strokeColor=#545B64;rounded=0;exitX=1;exitY=0.5;exitDx=0;exitDy=0;exitPerimeter=0;" edge="1" parent="D_S-s3Nb1uPOKD5JZRhK-2" source="D_S-s3Nb1uPOKD5JZRhK-10" target="D_S-s3Nb1uPOKD5JZRhK-109">
          <mxGeometry width="100" relative="1" as="geometry">
            <mxPoint x="420" y="322" as="sourcePoint" />
            <mxPoint x="722" y="160.5" as="targetPoint" />
            <Array as="points">
              <mxPoint x="400" y="342" />
              <mxPoint x="400" y="350" />
            </Array>
          </mxGeometry>
        </mxCell>
        <mxCell id="_1s6jJ3s3lcJXKKOm0l4-22" value="&lt;b&gt;GET&lt;/b&gt;" style="text;html=1;align=center;verticalAlign=middle;whiteSpace=wrap;rounded=0;" vertex="1" parent="D_S-s3Nb1uPOKD5JZRhK-2">
          <mxGeometry x="570" y="30" width="50" height="20" as="geometry" />
        </mxCell>
        <mxCell id="_1s6jJ3s3lcJXKKOm0l4-23" value="" style="edgeStyle=orthogonalEdgeStyle;html=1;endArrow=block;elbow=vertical;startArrow=block;startFill=1;endFill=1;strokeColor=#545B64;rounded=0;exitX=0.5;exitY=0;exitDx=0;exitDy=0;exitPerimeter=0;entryX=0;entryY=0.5;entryDx=0;entryDy=0;entryPerimeter=0;" edge="1" parent="D_S-s3Nb1uPOKD5JZRhK-2" source="D_S-s3Nb1uPOKD5JZRhK-10">
          <mxGeometry width="100" relative="1" as="geometry">
            <mxPoint x="359" y="313" as="sourcePoint" />
            <mxPoint x="640" y="64" as="targetPoint" />
            <Array as="points">
              <mxPoint x="350" y="242" />
              <mxPoint x="560" y="242" />
              <mxPoint x="560" y="64" />
            </Array>
          </mxGeometry>
        </mxCell>
        <mxCell id="_1s6jJ3s3lcJXKKOm0l4-24" value="&lt;b&gt;GET, POST, DELETE&lt;/b&gt;" style="text;html=1;align=center;verticalAlign=middle;whiteSpace=wrap;rounded=0;" vertex="1" parent="D_S-s3Nb1uPOKD5JZRhK-2">
          <mxGeometry x="420" y="326" width="140" height="20" as="geometry" />
        </mxCell>
        <mxCell id="_1s6jJ3s3lcJXKKOm0l4-25" value="&lt;b&gt;POST&lt;/b&gt;" style="text;html=1;align=center;verticalAlign=middle;whiteSpace=wrap;rounded=0;" vertex="1" parent="D_S-s3Nb1uPOKD5JZRhK-2">
          <mxGeometry x="490" y="690" width="90" height="20" as="geometry" />
        </mxCell>
        <mxCell id="_1s6jJ3s3lcJXKKOm0l4-26" value="" style="edgeStyle=orthogonalEdgeStyle;html=1;endArrow=block;elbow=vertical;startArrow=block;startFill=1;endFill=1;strokeColor=#545B64;rounded=0;exitX=1;exitY=0.5;exitDx=0;exitDy=0;exitPerimeter=0;entryX=0;entryY=0.25;entryDx=0;entryDy=0;entryPerimeter=0;" edge="1" parent="D_S-s3Nb1uPOKD5JZRhK-2" source="D_S-s3Nb1uPOKD5JZRhK-109" target="D_S-s3Nb1uPOKD5JZRhK-18">
          <mxGeometry width="100" relative="1" as="geometry">
            <mxPoint x="678" y="479" as="sourcePoint" />
            <mxPoint x="1110" y="415" as="targetPoint" />
            <Array as="points">
              <mxPoint x="900" y="350" />
              <mxPoint x="900" y="370" />
              <mxPoint x="1030" y="370" />
              <mxPoint x="1030" y="386" />
            </Array>
          </mxGeometry>
        </mxCell>
        <mxCell id="_1s6jJ3s3lcJXKKOm0l4-27" value="" style="edgeStyle=orthogonalEdgeStyle;html=1;endArrow=block;elbow=vertical;startArrow=block;startFill=1;endFill=1;strokeColor=#545B64;rounded=0;exitX=1;exitY=0.75;exitDx=0;exitDy=0;exitPerimeter=0;entryX=1;entryY=0.5;entryDx=0;entryDy=0;entryPerimeter=0;" edge="1" parent="D_S-s3Nb1uPOKD5JZRhK-2" source="D_S-s3Nb1uPOKD5JZRhK-119" target="D_S-s3Nb1uPOKD5JZRhK-11">
          <mxGeometry width="100" relative="1" as="geometry">
            <mxPoint x="678" y="479" as="sourcePoint" />
            <mxPoint x="1110" y="415" as="targetPoint" />
            <Array as="points">
              <mxPoint x="700" y="489" />
              <mxPoint x="1260" y="488" />
              <mxPoint x="1260" y="186" />
            </Array>
          </mxGeometry>
        </mxCell>
        <mxCell id="_1s6jJ3s3lcJXKKOm0l4-28" value="&lt;b&gt;Adding New Order&lt;/b&gt;" style="text;html=1;align=center;verticalAlign=middle;whiteSpace=wrap;rounded=0;" vertex="1" parent="D_S-s3Nb1uPOKD5JZRhK-2">
          <mxGeometry x="960" y="464" width="110" height="20" as="geometry" />
        </mxCell>
        <mxCell id="_1s6jJ3s3lcJXKKOm0l4-6" value="&lt;font style=&quot;font-size: 9px;&quot;&gt;&lt;b&gt;1. Authenticate&lt;/b&gt;&lt;/font&gt;" style="text;html=1;align=center;verticalAlign=middle;whiteSpace=wrap;rounded=0;rotation=0;" vertex="1" parent="1">
          <mxGeometry x="138" y="190" width="72" height="28" as="geometry" />
        </mxCell>
        <mxCell id="_1s6jJ3s3lcJXKKOm0l4-7" value="&lt;font style=&quot;font-size: 9px;&quot;&gt;&lt;b&gt;3. Token Exchange&lt;/b&gt;&lt;/font&gt;" style="text;html=1;align=center;verticalAlign=middle;whiteSpace=wrap;rounded=0;rotation=0;" vertex="1" parent="1">
          <mxGeometry x="80" y="250" width="120" height="28" as="geometry" />
        </mxCell>
        <mxCell id="_1s6jJ3s3lcJXKKOm0l4-8" value="&lt;font style=&quot;font-size: 9px;&quot;&gt;&lt;b&gt;2. Auth Code&lt;/b&gt;&lt;/font&gt;" style="text;html=1;align=center;verticalAlign=middle;whiteSpace=wrap;rounded=0;rotation=0;" vertex="1" parent="1">
          <mxGeometry x="70" y="222" width="80" height="18" as="geometry" />
        </mxCell>
        <mxCell id="_1s6jJ3s3lcJXKKOm0l4-11" value="&lt;font style=&quot;font-size: 9px;&quot;&gt;&lt;b&gt;4. ID Token, Access Token&lt;/b&gt;&lt;/font&gt;" style="text;html=1;align=center;verticalAlign=middle;whiteSpace=wrap;rounded=0;rotation=0;" vertex="1" parent="1">
          <mxGeometry x="100" y="370" width="120" height="28" as="geometry" />
        </mxCell>
      </root>
    </mxGraphModel>
  </diagram>
</mxfile>
